<svg id="Layer_1" data-name="Layer 1" xmlns="http://www.w3.org/2000/svg" viewBox="0 0 108.58 125.3"><defs><style>.cls-1{fill:#fff;}</style></defs><path class="cls-1" d="M163.24,67.35l-.07,0a.83.83,0,0,0-.52-.4,28.13,28.13,0,0,1-12.54-7.19c-4-3.88-5.89-8.33-7.74-13.43a.51.51,0,0,0-.77-.23,7.85,7.85,0,0,0-3.13-.11c-3.72-.27-7.58,0-11.25,0-5.79,0-11.58,0-17.36,0l-17.27-.06-8,0c-2.7,0-5.57-.3-8.2.37a.62.62,0,0,0-.41.79h0C74.1,51.82,72.78,56,69.3,60A31.14,31.14,0,0,1,63.38,65c-2.39,1.61-4.94,2-7.59,3a.83.83,0,0,0-.33,1.33c-.48,1.53-.2,3.89-.22,5.14-.05,4.14.11,8.32.29,12.45.32,7.71.3,15.52,1.12,23.19.37,3.39,1.22,6.67,1.52,10.07a34.49,34.49,0,0,0,2.68,9.64,72.36,72.36,0,0,0,4,8.82c.89,1.61,2,4,3.75,4.79.25.33.5.66.77,1a123.31,123.31,0,0,0,12.15,12,80.89,80.89,0,0,0,13.21,9.95c4.16,2.45,10,5.2,15,4.58a.56.56,0,0,0,.51-.6,27.63,27.63,0,0,0,8.23-2.17,69.19,69.19,0,0,0,14.93-8.68,104.24,104.24,0,0,0,12.78-11.34c.49-.49,1-1,1.4-1.5a.09.09,0,0,0,.15,0c3.95-4.45,7.13-10.32,9.55-15.72,3-6.8,4.25-13.84,5.06-21.19a207.63,207.63,0,0,0,1.33-24.43q-.06-6.65-.13-13.3C163.52,70.89,164.19,68.31,163.24,67.35Zm-1.06,2.93c-.11,1.33-.07,2.67-.08,4,0,4.08-.07,8.15-.12,12.23a191.8,191.8,0,0,1-1.24,22.22c-1,7.83-2.12,15-5.37,22.31-1.58,3.53-3.64,6.73-5.4,10.11a50.06,50.06,0,0,1-4.37,5.08,112.15,112.15,0,0,1-10.95,10.06,76.65,76.65,0,0,1-13.09,8.43,45.26,45.26,0,0,1-8.59,3.46,25.93,25.93,0,0,1-6.88.71c-1-.24-2.11-.49-3.13-.82a40.54,40.54,0,0,1-8.1-3.83,80.2,80.2,0,0,1-12.77-9.78c-3.75-3.36-7.38-6.87-10.9-10.47a45.8,45.8,0,0,1-5.12-6.44c-.26-.6-.52-1.18-.78-1.7a84.72,84.72,0,0,1-3.81-9.32,37.54,37.54,0,0,1-1.84-9.21c-.36-3.15-1.24-6.2-1.55-9.38-.65-6.59-.61-13.3-.89-19.91-.14-3.37-.1-6.74-.15-10.11a63.87,63.87,0,0,0,.08-6.73c.07-.69.17-1.37.21-2a30.43,30.43,0,0,0,6-2.21,30.5,30.5,0,0,0,7.12-5.78c3.2-3.39,6.42-8.74,6.68-13.56,4.49.91,9.75.17,14.26.16l17.27-.06c5.78,0,11.56,0,17.35,0,5,0,10.42.53,15.38-.34a.05.05,0,0,0,0,0c.41,4.81,3.73,9.46,6.81,12.92a28.14,28.14,0,0,0,13.9,8.32h.08a.43.43,0,0,0,0,.11C162.29,69.21,162.23,69.75,162.18,70.28ZM87.75,93.62v-14h16m0,47h-16v-15m47,0v15h-15m0-47h15v14" transform="translate(-55.17 -45.78)"/></svg>