<svg id="Layer_1" data-name="Layer 1" xmlns="http://www.w3.org/2000/svg" viewBox="0 0 208.5 216.95"><defs><style>.cls-1{fill:#fff;}</style></defs><path class="cls-1" d="M17.85,204.75c.33.35.66.7,1,1,1.46,1.42,1.46,1.8-.11,3.33.6.55,1.2,1.07,1.78,1.62a2.8,2.8,0,0,1,.48,4,2.88,2.88,0,0,1-4.21.19c-.33-.27-.66-.55-.87-.74L13.81,217H4.29c-3.68-2.29-4.45-4.62-2.76-8.34-2.35-2.51-2-4.8,1.23-6C1,201-.79,199.23,1.54,197.17s3.91.37,5.59,1.6c1.79-1.69,2-1.69,3.82,0,.44.39.94.73,1.41,1.09ZM3.3,198c-.36.35-.93.67-.9.9a2.88,2.88,0,0,0,.73,1.65Q10.32,207,17.6,213.35c.45.39,1.61.64,1.94.36.87-.72.15-1.45-.49-2q-7.29-6.47-14.6-12.91A12.22,12.22,0,0,0,3.3,198ZM14.38,213.6A18.09,18.09,0,0,1,12,212.08c-2.72-2.34-5.36-4.79-8.11-7.1-.37-.31-1.21-.07-1.83-.08.05.56-.13,1.38.18,1.66,3.12,2.89,6.3,5.7,9.51,8.48a1.66,1.66,0,0,0,1.34.15C13.4,215.08,13.6,214.59,14.38,213.6Zm4.94-5.9a11.06,11.06,0,0,0-.87-1.11c-.64-.59-1.31-1.15-2-1.73-2.24-2-4.46-4-6.73-6-.28-.24-.83-.15-1.25-.21,0,.32,0,.78.13.94,3,2.75,6.07,5.48,9.16,8.15C18,208,18.6,207.75,19.32,207.7ZM8.5,214.52,3,209.73c-.89,2-.59,3.7.7,4.79S6.72,215.75,8.5,214.52Z"/><path class="cls-1" d="M196.08,199.85c.58-.48,1.19-.94,1.76-1.43,1.58-1.39,2-1.38,3.51.27.65-.54,1.29-1.12,2-1.64a2.83,2.83,0,0,1,4,.29,2.78,2.78,0,0,1-.29,3.94c-.37.37-.82.67-1.29,1.05,3.32,1.78,3.59,3.43,1.23,6.08,1.77,3.94.87,6.44-3.06,8.54h-9.2l-2.09-2.77c-1.45,1.28-3.29,2.66-5.24.3-1.16-1.4-.7-2.36,2.32-5.46-1.52-1.53-1.5-2,.13-3.48.55-.51,1-1.1,1.53-1.66Zm10.36-.65c-.36-.42-.6-1-.88-1a2.13,2.13,0,0,0-1.43.43c-4.9,4.29-9.76,8.61-14.63,12.93-.62.55-1.37,1.18-.62,2s1.46.17,2.08-.38q7.24-6.42,14.47-12.85A12.83,12.83,0,0,0,206.44,199.2Zm.54,6.36c-.35-.41-.6-1-.89-1a2.39,2.39,0,0,0-1.6.41c-3.06,2.63-6.06,5.32-9.08,8-.65.57-1,1.33-.21,1.9a1.89,1.89,0,0,0,1.8-.11c3.07-2.61,6.07-5.31,9.07-8A8.46,8.46,0,0,0,207,205.56ZM189.81,208l.5.11c3.15-2.78,6.31-5.55,9.43-8.36.23-.21.19-.71.27-1.08-.37,0-.87-.14-1.08,0-3,2.62-6,5.26-8.94,7.95C189.74,206.87,189.86,207.53,189.81,208Zm10.17,6.5c1.93,1.24,3.67,1.1,5-.29a3.32,3.32,0,0,0,.33-4.45Z"/><path class="cls-1" d="M137.82,161.26a7.66,7.66,0,0,1,.45-1,4.47,4.47,0,0,0-.38-5.94q-12.81-14.49-25.67-29c-2.53-2.86-5-5.75-7.67-8.76-2.1,2.39-4.11,4.68-6.13,7q-13.31,15.06-26.62,30.1c-2.41,2.72-2.54,3.93-.69,7.07.08.13.1.3.08.23L60.78,150.92l3.13-4.11-.2-.22-3.27,4-12.06-9.29.12-.22a5.36,5.36,0,0,1,.89.26c2.42,1.11,4.1.78,5.91-1.27,5.44-6.14,10.85-12.3,16.3-18.43,6.25-7,12.51-14,18.91-21.21l-4-4.67c-20.13-23.64-40.3-47.26-58.44-72.5-4-5.58-7.45-11.57-11-17.43A7.64,7.64,0,0,1,15.85,0c1.48.58,3,.85,4.1,1.67,4.44,3.27,9,6.48,13.08,10.12C47.52,24.56,61,38.43,74.22,52.47c10,10.61,19.9,21.36,29.84,32.05a6.38,6.38,0,0,0,.55.39c2.1-2.27,4.21-4.53,6.3-6.81,16.69-18.16,33.53-36.17,51.21-53.38,7.76-7.55,15.55-15.09,24.38-21.41,2-1.45,4.05-3,7.18-3-.37,1.53-.42,3-1.07,4.17-2.7,4.81-5.34,9.68-8.44,14.23-10.16,14.93-21.46,29-33,42.88-10.45,12.64-21.1,25.12-31.65,37.67-.32.37-.6.77-1,1.23,3.55,4,7.09,7.91,10.61,11.87q12,13.55,24.05,27.13c2.37,2.68,3.55,3,6.9,1.67a3.56,3.56,0,0,1,.77,0l-11.78,9.08-3.71-4.05-.41.39,3.33,4.42-10.79,9.93Zm-26.7-70.94c-.7,1.43.15,2.88,2,3.44a3.08,3.08,0,0,0,.33,1c1.24,1.45,2.53,2.85,3.88,4.36.55-.6,1-1.11,1.48-1.64C124.06,91.33,129.4,85.25,134.5,79c13.11-16.09,26.21-32.2,39.11-48.47a166.93,166.93,0,0,0,16.3-24c.71-1.29,1.2-2.7,1.79-4a3.65,3.65,0,0,0-2,.58,38.32,38.32,0,0,0-4.57,3.17c-8.56,7.72-17.4,15.16-25.51,23.33C145.38,44,131.53,58.78,117.55,73.45c-4,4.19-7.85,8.5-11.84,12.83,1.33,1.46,2.53,2.88,3.86,4.15C109.82,90.68,110.59,90.38,111.12,90.32ZM97.48,95.46a10.73,10.73,0,0,1,1.19,1q20.73,23.46,41.43,47c1.2,1.35,2.41,2.69,3.62,4l.34-.23-1.06-2.4c1.46-1.22,2.13,1.18,3.52.65-.23-.31-.42-.61-.66-.88q-16.61-18.69-33.2-37.39c-1.39-1.57-2.67-3.26-4-4.89a4.31,4.31,0,0,1,.76.54q6.92,7.68,13.83,15.36,12.12,13.45,24.29,26.89a2.48,2.48,0,0,0,1.79.76,18.5,18.5,0,0,0,7.89-3.33c-2.46.69-4.1-.37-5.57-2.21-1.84-2.31-3.82-4.5-5.8-6.7C128.22,114.07,110.68,94.41,92.91,75c-16.27-17.8-32.79-35.38-50.26-52C36.2,16.8,29.35,11.1,22.6,5.28a40.33,40.33,0,0,0-4.83-3.13l-.34.35A22.19,22.19,0,0,0,18.5,5.17a70.57,70.57,0,0,0,4.42,7.66c7.82,10.74,15.38,21.69,23.75,32q25.61,31.48,52,62.34c12.93,15.19,26.29,30,39.53,45,1.46,1.65,2.6,3.19,1.94,5.62a55.32,55.32,0,0,0,3.59-6.43,2.61,2.61,0,0,0-.71-3.37,29.35,29.35,0,0,1-2.39-2.7q-18.76-21.49-37.52-43C101.18,100,99.36,97.72,97.48,95.46Zm-6,6.07a7.75,7.75,0,0,1-.75,1.3Q74.83,120.73,58.9,138.6c-1.76,2-3,4.84-6.63,4.33a59.92,59.92,0,0,0,6.55,2.8,2.59,2.59,0,0,0,3.14-.94q14.22-15.89,28.52-31.68c1.86-2.06,3.69-4.14,5.59-6.26ZM99,110.26c-.46.49-.81.83-1.13,1.19Q82.59,129,67.31,146.53c-2.81,3.24-2.87,3.89-.68,7.68.64,1.12,1.39,2.18,2.09,3.27-.34-2.11.54-3.58,1.85-5Q82.5,139.14,94.3,125.73c3-3.42,6-6.9,9.08-10.41Zm-2.63-3.06L62.22,145.72l4-1.27-1.2,2.82.35.22,33.25-37.6-1.25-1.51Z"/><path class="cls-1" d="M180.83,120.52a.41.41,0,0,0,.07.15c2.82,3,3,2.38-.39,5.12-2.38,1.89-4.91,3.61-7.41,5.34-2,1.37-3.09.93-4-1.82l-2.89,6.52.26.15,2.36-4.38,2.75,1.35c-1.13.92-2.21,1.87-3.36,2.74a41.7,41.7,0,0,1-5,3.47,17.84,17.84,0,0,1-4.73,1.54c-1.6.33-2.66-.58-3.39-2.21,3,.33,5.81-.07,7.83-2.18a38,38,0,0,0,4.05-5.69c.53-.81.8-1.79,1.32-2.62a1.49,1.49,0,0,1,1.14-.68c.33,0,.64.6.86,1a3.86,3.86,0,0,1,.27,1.1c.21,1.07.81,1,1.52.49,2.18-1.6,3.6-3.54,3.49-6.46a7.72,7.72,0,0,1,.82-3.88c1-1.86,2.83-2.15,4.63-1a21.52,21.52,0,0,1,2.43,1.94c1.4,1.21,2.71,1.19,3.77-.33.83-1.2,1.33-2.62,2.08-3.89a7.29,7.29,0,0,1,1.31-1.29c.41.53,1.12,1,1.16,1.6a11.8,11.8,0,0,1-.27,3.7,26.24,26.24,0,0,1-1.37,3.49,44,44,0,0,1,5.21,4.51c1.74,2,1.46,4.62-.22,6.77s-4.27,3.11-6.5,2c-1.2-.59-2.1-1.8-3.62-3.17-10.21,1.26-18.06,7.34-24.21,16.12l1.2,2.27a12.48,12.48,0,0,0-2.16.4,3.14,3.14,0,0,0-1.38,1.27c3.35-.79,6-.52,7,3.49l-9.15,1.15-1.79-1.69-.3.19.62,2.67c3.07-.38,6.13-.61,9.12-1.18,3.27-.62,4.93,1.55,5.69,4.05-1.89.27-3.74.56-5.6.8-4.17.55-8.34,1.1-12.51,1.57-1.14.13-2.45.59-3.31-.68-.2-.29-.14-.75-.2-1.13.33.08.66.16,1,.26a5.94,5.94,0,0,0,2,.62c4.77-.53,9.53-1.16,14.3-1.77a9.21,9.21,0,0,0,1-.25c-.27-1.35-1.11-1.65-2.28-1.52-4.23.49-8.46,1.36-12.69,1.34-5,0-8.5,2.86-12.12,5.55A31,31,0,0,0,129,180.93c-.63,1.56-1.13,3.17-1.74,4.87,2.5.6,3.36,2.35,3.3,4.53-.07,2.51-1.61,4.12-3.76,5.15a5.21,5.21,0,0,1-5.84-.75,10,10,0,0,1-3.5-5.92c-2.1.39-4.06.78-6,1.1a2.31,2.31,0,0,1-1.43-.18,15,15,0,0,1-1.85-1.43A12.07,12.07,0,0,1,110,187c1.18-.55,2.49-.85,3.63-1.47,1.65-.91,1.87-2.28.8-3.84-.37-.54-.75-1.08-1.09-1.64-.84-1.35-1.51-2.78-.38-4.25a4.3,4.3,0,0,1,4.64-1.72,6.93,6.93,0,0,0,7-2c.4-.42.75-.9,1.32-1.58a19.42,19.42,0,0,1-2-.92,8.3,8.3,0,0,1-1.17-1c.39-.4.71-1,1.18-1.16,1.3-.55,2.68-.91,4-1.41,4.34-1.67,7.37-4.43,7.7-9.4a4.94,4.94,0,0,1,.23-.87c1.32.86,2,1.91,1.61,3.43-.25,1-.26,2.21-.86,2.94-2.6,3.19-5.38,6.24-8.27,9.54-.49-1.41-.82-2.34-1.13-3.24l4-1.47-.13-.38-5.89,1.7-.18.32a2,2,0,0,1,.42.1c2.14,1.1,2.45,2,.92,3.74-2.52,2.86-5.2,5.57-7.8,8.36-.87.93-1.68,1-2.35-.16s-1.75-2.34-1.57-3.33c.26-1.49,2.09-1.14,3.34-1.31a3.15,3.15,0,0,0,1.74-.6,17.57,17.57,0,0,0-4.32.34c-1.69.55-1.93,1.9-.94,3.42.42.64.94,1.22,1.36,1.85s.74,1.21,1.32,2.18a536.34,536.34,0,0,1,67.44-59.88l-3.66-3c-1.42-1.29-2.8-1.24-3.53.43a17.33,17.33,0,0,0-.71,4.06l.39.07c.15-.9.26-1.8.46-2.69C178.07,120.1,178.82,119.73,180.83,120.52ZM127.4,189.76c-1.26,2.28-2.38,2.41-4,.59a1.35,1.35,0,0,0-.64-.43c-1.11-.23-1.28-1-1.28-2-.06-6,3.33-10.23,7.29-14.17a12.09,12.09,0,0,1-1.89,3.27,18.56,18.56,0,0,0-4.59,8.18c-.41,1.88-.2,3.19.73,4,3.64-6.63,6.49-13.72,11.77-19.33s11.75-9.59,18.69-12.88c-5,1.08-9.1,4.16-13.56,6.49l10.65-9.86-.41-.56a7.88,7.88,0,0,0-1.36.87q-11.72,11-23.39,22c-2.79,2.62-5.77,5.08-8.28,7.94a12.53,12.53,0,0,1-6,4,8.33,8.33,0,0,0-.87.47,10,10,0,0,0,5.93-1.15,4.68,4.68,0,0,0,1.35-1.13c.56-.6,1.06-1.27,1.59-1.91l.42.29a11.67,11.67,0,0,0-.19,1.43,8.42,8.42,0,0,0,3.46,7.53,3.37,3.37,0,0,0,4.13-.13c1.64-1.13,2.35-2.6,2-4.15a2.37,2.37,0,0,0-2.7-2c-1.5.35-2.08,1.43-1.59,3C125.5,189.62,126.21,188.6,127.4,189.76Zm63-72a29.78,29.78,0,0,1-2.73,3.88,39.88,39.88,0,0,1-3.64,2.75c-3.76,3.09-7.47,6.23-11.21,9.35Q162.42,142.4,152,151.07a12.16,12.16,0,0,0-1.23,1.43l.53.47,10.88-9.21c-1.38,2.19-2.95,4.15-4.45,6.17-2.91,3.91-3.49,5.11-3.22,6.63.45-.75.79-1.35,1.15-1.94,5.54-9.18,12.79-16.45,22.94-20.44,3.77-1.49,7.57-2.87,11.35-4.3l0-.51a13,13,0,0,0-2.47-.7c-3.88-.31-7.06,1.45-10.15,3.51a30.5,30.5,0,0,1-3.38,1.7l-.27-.49c1.85-1.13,3.64-2.41,5.58-3.36,3.07-1.5,6.28-2.54,9.79-1.75,1.07.24,3.17,3.08,2.82,4.08a4.23,4.23,0,0,1-1.42,1.63,1,1,0,0,1-1-.17,1.18,1.18,0,0,1,.06-1,9.72,9.72,0,0,1,1.15-1.31,2,2,0,0,0-2.91.85c-.33.66-.41,2,0,2.34a3.7,3.7,0,0,0,6.47-1.76,3.82,3.82,0,0,0-1-4.07,9.88,9.88,0,0,0-8-3.24,3.62,3.62,0,0,1,1.7-1.43C189,123.37,190.8,119.94,190.38,117.75Zm-27.62,39.33c-.68-1.71-.68-1.71-3-1.42-2.48.32-2.48.32-2.7,2.06Zm23.54-24.42-.23-.48-4.28,1.44.18.53C183.21,133,185.24,134.36,186.3,132.66Zm-66.39,45,0-.82-3.12.19.05.79Zm7.93,4.67-.42-.18-1.6,3.65.46.21C127.74,185.21,127.11,183.49,127.84,182.36Zm51.45-60-.76-.11-.37,3,.71.1Z"/><path class="cls-1" d="M54.77,159.89c-.73-1.34-2.1-1.11-3.27-1.27-2.8-.4-5.62-.71-8.64-1.08.56-1.69,1.35-3.29,2.85-3.66s3.1.2,4.67.35C49,146.09,32.09,133.47,23.21,134a4.89,4.89,0,0,1-6.91,3,5.94,5.94,0,0,1-3.1-8.06,9.82,9.82,0,0,1,5.8-4.65,53,53,0,0,1-1.77-5.14,7.29,7.29,0,0,1,.13-3,1.59,1.59,0,0,1,1.05-1.06c.35,0,.89.51,1.13.93.52.9.85,1.89,1.33,2.82,1.51,2.93,2.95,3.17,5.4,1,1.36-1.17,2.73-2.6,4.78-1.67s2.7,2.91,2.47,5.07c-.31,3,1.11,5,3.37,6.64.82.6,1.3.52,1.61-.59a9.37,9.37,0,0,1,1.2-2.06,22,22,0,0,1,1.62,1.88,9.69,9.69,0,0,1,.75,1.63c2.69,5.82,5.45,7.67,11.81,7.83a3.11,3.11,0,0,1-3.57,2.13,8.42,8.42,0,0,1-3.16-.73c-3.32-2.17-6.51-4.52-9.94-6.92l3-1.47,1.83,3.62.34-.15-2.25-5.38c-.68.77-1.26,2-1.94,2a5.14,5.14,0,0,1-2.91-1.13c-2.39-1.6-4.7-3.31-7-5-.86-.64-1.62-1.42-2.57-2.28a32.57,32.57,0,0,1,2.49-2.57c1.47-1.22,2.46-.92,3,.93.37,1.18.52,2.44,1,3.65a18.2,18.2,0,0,0-.48-4.15c-.69-2-2.29-2.22-3.86-.84-.54.47-1,1-1.58,1.43s-1.08.87-2,1.59a535.52,535.52,0,0,1,67.4,59.82,37.65,37.65,0,0,0,2.5-3.65c.41-.78.86-2.16.49-2.59a5.16,5.16,0,0,0-3-1.54,16.6,16.6,0,0,0-4,.38c1.68.16,3.32.24,4.92.49,1.88.31,2.32,1.33,1.27,2.88-.64.93-1.43,1.75-2.37,2.88-1.8-1.83-3.45-3.47-5.06-5.15-1.17-1.21-2.28-2.47-3.45-3.68-2-2.1-1.86-3.25,1-4.73l-3.48-1a10.43,10.43,0,0,0-3.36-.63l4.53,1.73-.92,2.71s-.12.06-.16,0c-2.73-2.89-5.58-5.69-8.1-8.75a7.39,7.39,0,0,1-1.16-4.17c0-.85.86-1.73,1.7-2.47.12.61.26,1.22.35,1.83a9.3,9.3,0,0,0,5.54,7.41c1.9.93,4,1.52,5.92,2.36.52.22.9.8,1.34,1.22a6.7,6.7,0,0,1-1.38,1c-1.88.76-1.94,1.05-.49,2.53a7.26,7.26,0,0,0,6.75,2,6.72,6.72,0,0,1,3.3.34c2.05.8,2.66,2.55,1.74,4.54a22.69,22.69,0,0,1-1.64,2.64c-1.07,1.63-.87,2.92.84,3.82,1.29.67,2.76,1,4.11,1.57a7.8,7.8,0,0,1,1.39,1c-.41.46-.79,1.28-1.24,1.32a30.3,30.3,0,0,1-5.13,0,13.79,13.79,0,0,1-2.81-.85,8.13,8.13,0,0,1-.53,1.46,24.82,24.82,0,0,1-2.93,4.45c-1.93,2-4.67,2-7.07.37s-3.39-4.13-2.35-6.51c.47-1.08,1.55-1.91,2.64-3.19a31.27,31.27,0,0,0-7.62-13.95c-1.65-1.74-3.6-3.18-5.39-4.79-3.77-3.4-8.34-4.37-13.24-4.65-3.59-.21-7.17-.71-10.74-1.17A2.06,2.06,0,0,0,42,162.17c1.22.2,2.35.42,3.5.57,3.9.48,7.79,1,11.7,1.35a10.55,10.55,0,0,0,3.13-.71,1.52,1.52,0,0,1-1.74,1.93c-6.59-.8-13.17-1.69-19.77-2.55.84-3.2,2.63-4.37,5.6-4,3.46.44,6.94.74,10.42,1.1l5.78,2.34.19-.56ZM47.16,144,57.73,153l.53-.51a12.38,12.38,0,0,0-1.17-1.32q-13.14-11-26.28-22c-2.44-2-4.95-4-7.33-6.07a48.12,48.12,0,0,1-3.93-4,8.77,8.77,0,0,1-1-1.86,7.55,7.55,0,0,0,3.71,7.1c.54.29.88,1,1.52,1.68a8.43,8.43,0,0,0-8,2.87A4.16,4.16,0,0,0,18.27,136a4.24,4.24,0,0,0,3-1.4c.39-.39.15-1.77-.23-2.46-.54-1-1.6-1.13-2.83-.56.42.36.84.57,1,.91a5.83,5.83,0,0,1,.3,1.46,3.7,3.7,0,0,1-1.47-.12,1.88,1.88,0,0,1-.39-3.05c.32-.35.53-.79.85-1.14s.85-1.14,1.37-1.24c6-1.14,10.59,1.75,15,5.18a8.88,8.88,0,0,1-3-1.24c-3.13-2.1-6.34-3.92-10.29-3.62a12.11,12.11,0,0,0-2.48.74l.13.52c7,2.76,14.41,4.75,20.59,9.33s10.94,10.55,15,17.09C53.21,151.64,49.79,148.11,47.16,144ZM86,189.35l.66-.06a17,17,0,0,0,.15-3.55c-.51-3.35-2.32-6.05-4.52-8.55a29.38,29.38,0,0,1-2.07-2.95c2.15,1,5,4.68,6.07,7.72a29.18,29.18,0,0,1,1.27,6c.16,1.23-2.46,3.61-3.7,3.57a2,2,0,0,1-1.33-.48,5.22,5.22,0,0,1-.69-1.53,11.66,11.66,0,0,1,1.78.11c.31.06.56.39.89.64a2,2,0,0,0-1-2.71,3.06,3.06,0,0,0-2.51.16,2.87,2.87,0,0,0-.66,3.72c1.55,3.19,5.2,3.57,7.34.74a8.85,8.85,0,0,0,1.72-7.88c.69.33,1.55.47,1.68.85,1,2.82,3.53,2.73,5.71,3.33a7.76,7.76,0,0,0,1.95-.09A6.55,6.55,0,0,0,98,188a12.39,12.39,0,0,1-6-4,104.11,104.11,0,0,0-7.57-7.27q-12.15-11.49-24.32-23c-.32-.3-.89-.32-1.34-.47a4.1,4.1,0,0,0,.6,1.16c1.5,1.44,3,2.82,4.58,4.23l5.18,4.78a5.76,5.76,0,0,1-1.8-.79c-3.29-1.83-6.58-3.66-9.9-5.43a8.12,8.12,0,0,0-2-.43c.14.42.14.5.18.51.33.18.66.37,1,.52,11.23,4.77,19.91,12.29,25.3,23.39C83.27,184,84.67,186.66,86,189.35ZM52.29,157.89c-.76-2.94-3.17-1.77-4.78-2.23-.52-.14-1.29.6-1.94.94l.22.55,5.47.68C51.52,157.86,51.78,157.86,52.29,157.89ZM22.81,132.16c.47,1.34,2.14,1.85,4.79,1.5Zm58.65,49.58c.1,2.71.62,3.92,1.87,4.21Zm7.68-4.6v.45H92.3l0-.45Z"/><path class="cls-1" d="M150.33,165.68l9-1.11c3.08-.37,6.15-.78,9.24-1.08,2.61-.25,3.93.76,4.78,3.61-2,.31-4.05.63-6.07.9-3.67.49-7.34.92-11,1.4C152.8,169.86,151.76,169.25,150.33,165.68Zm19.35,1c-.34-1.34-.56-1.48-1.78-1.33-2.26.27-4.53.51-6.8.8s-4.26.58-6.39.88l-.14.62a8.72,8.72,0,0,0,2.24.76,16.12,16.12,0,0,0,3.07-.34C163.14,167.59,166.4,167.11,169.68,166.65Z"/><path class="cls-1" d="M35.21,167.24c.38-2.28,1.95-3.94,3.72-3.75,6.38.7,12.75,1.5,19.14,2.26-.82,3-2.31,4.24-5,3.91C47.16,168.91,41.24,168.06,35.21,167.24ZM38.66,166l.14.68c.63.12,1.26.28,1.89.37,3.56.48,7.15.85,10.68,1.47,1.39.24,2-.28,2.59-1.47-4.59-.56-9-1.13-13.46-1.6A5.09,5.09,0,0,0,38.66,166Z"/><path class="cls-1" d="M176.5,171.18l-10.45,1.44c-2.05.29-4.1.52-6.14.86-2.63.43-4.17-.45-5.2-3.21,1.95-.3,3.86-.61,5.78-.89,3.72-.53,7.44-1,11.15-1.58C174.49,167.37,176.35,168.57,176.5,171.18Zm-3.61-.35.14-.72a5.54,5.54,0,0,0-1.91-.48c-4.26.52-8.51,1.15-12.79,1.74.32,1.32,1.21,1.36,2.18,1.22L165,172Z"/><path class="cls-1" d="M53.73,170.48c-.83,2.34-2.26,3.4-4.5,3.12-5.77-.73-11.52-1.55-17.28-2.33.19-2,1.75-3.73,3.43-3.51,5.93.77,11.85,1.66,17.76,2.52A3.16,3.16,0,0,1,53.73,170.48ZM50.23,172l-.15-.5-4.65-.69c-2.69-.37-5.38-.75-8.08-1.08-.8-.09-1.69-.13-1.77,1.22l11.78,1.67a3,3,0,0,0,1.14.06A14.76,14.76,0,0,0,50.23,172Z"/><path class="cls-1" d="M42.08,182.89c-1.18,1.26-2,2.29-3,3.19a1.93,1.93,0,0,1-1.49.39c-4.9-1-9.78-2.11-14.67-3.19a3.61,3.61,0,0,1-.67-.36c.9-2.58,2.27-3.51,4.57-3.07C31.7,180.8,36.6,181.8,42.08,182.89Zm-4.47.59c-.74-.17-1.41-.35-2.1-.5-2.45-.51-4.89-1.09-7.36-1.46-.59-.09-1.29.51-1.95.8.46.37.87.94,1.39,1.07,2.54.64,5.12,1.1,7.65,1.73C36.67,185.47,37.25,184.82,37.61,183.48Z"/><path class="cls-1" d="M166.86,182.72l7.5-1.53q3.52-.69,7-1.35c2.66-.5,3.91.26,4.94,3.14l-6.93,1.58c-2.23.5-4.46,1-6.69,1.48C169.65,186.69,168.25,185.92,166.86,182.72Zm4,.59c.38,1.76,1.37,2,2.65,1.69,2.44-.54,4.89-1,7.3-1.64.56-.15,1-.75,1.48-1.14-.59-.28-1.24-.88-1.77-.79C177.34,182,174.18,182.65,170.87,183.31Z"/><path class="cls-1" d="M179.71,175.16l-15.62,2.42c-2.44.38-4.16-.63-5.17-3.19l11.24-1.75c1.67-.26,3.34-.47,5-.74C177.68,171.5,179.11,172.48,179.71,175.16Zm-17.08.37c.63,1.21,1.29,1.7,2.65,1.43,3-.6,6.13-.93,9.18-1.44a4.91,4.91,0,0,0,1.51-.89c-.58-.35-1.17-1-1.73-1a36.69,36.69,0,0,0-4.52.64Z"/><path class="cls-1" d="M28.75,175.23c.65-2.61,2-3.61,4.38-3.26,5.28.76,10.55,1.57,15.82,2.37a2.63,2.63,0,0,1,.58.24c-1,2.54-2.77,3.52-5.3,3.1C39.08,176.83,33.92,176,28.75,175.23Zm17.08.4c-1.07-.2-2-.39-3-.56-2.79-.48-5.57-1-8.37-1.37-.6-.07-1.29.64-1.94,1a4.91,4.91,0,0,0,1.46.86c3.06.53,6.15.88,9.19,1.5C44.54,177.34,45.22,176.89,45.83,175.63Z"/><path class="cls-1" d="M162.84,178.53c5.74-.92,11.32-1.87,16.92-2.69,1.88-.28,2.29,1.43,3.34,2.86-2.61.52-4.92,1-7.24,1.43-2.62.48-5.25.9-7.87,1.37C165.19,182,164.19,181.47,162.84,178.53Zm16.25.15c-1.12-1.34-8.53-.59-12.23,1.08a3.14,3.14,0,0,0,1.77.74c2.1-.24,4.18-.64,6.27-1C176.21,179.27,177.5,179,179.09,178.68Z"/><path class="cls-1" d="M45.58,178.64c-1.09,2.81-2.42,3.51-5.15,3-4.43-.85-8.88-1.63-13.31-2.46-.46-.08-.91-.24-1.37-.36.71-2.31,1.86-3.16,3.78-2.85C34.84,176.83,40.15,177.73,45.58,178.64Zm-3.6,1.2a5,5,0,0,0-.92-.47c-3.31-.6-6.62-1.22-10-1.74-.48-.07-1,.37-1.95.74a7.69,7.69,0,0,0,1.18.63c3.26.59,6.51,1.21,9.79,1.71C40.61,180.78,41.18,180.23,42,179.84Z"/><path class="cls-1" d="M189.45,186.86c-4.54,1.06-9.08,2.11-13.61,3.18-2.35.55-3.78-.28-4.65-2.87l14.09-3.23C187.55,183.41,188.87,184.29,189.45,186.86Zm-15.36.62-.36.57c.6.31,1.26,1,1.79.87,3.1-.56,6.18-1.28,9.25-2,.26-.06.66-.45.62-.61a1.2,1.2,0,0,0-.62-.82,3.18,3.18,0,0,0-1.44,0C180.24,186.13,177.17,186.81,174.09,187.48Z"/><path class="cls-1" d="M37.4,187.37c-1.43,2.9-2.32,3.31-5.3,2.62q-6.5-1.53-13-3c.4-2.43,1.85-3.43,4.09-2.92l13.35,3C36.79,187.12,37,187.24,37.4,187.37Zm-2.6.28c-1.69-.35-3.3-.68-4.91-1s-3.48-.87-5.25-1.13c-.47-.07-1,.5-1.57.77.38.29.72.73,1.15.84,2.74.67,5.49,1.27,8.24,1.9A1.78,1.78,0,0,0,34.8,187.65Z"/><path class="cls-1" d="M26.64,198.91c-1.23,2.71-2,3.09-4.45,2.33-3.48-1.08-7-2.15-10.43-3.28-.72-.23-1.95-.14-1.6-1.52A2.75,2.75,0,0,1,13,194.56c1.94.57,3.85,1.19,5.77,1.81C21.36,197.19,23.94,198,26.64,198.91Zm-13-1.9.08.57c3,1,5.92,2,8.9,3,.31.1.79-.35,1.18-.55-.24-.34-.4-.88-.72-1-2.63-.87-5.28-1.69-8-2.43C14.74,196.48,14.18,196.86,13.68,197Z"/><path class="cls-1" d="M29.92,195.25c-1.08,2.35-1.87,2.73-4.08,2.12l-12.9-3.52c.6-2.38,1.69-3,3.84-2.42l11.62,3.31C28.91,194.89,29.41,195.08,29.92,195.25ZM16.81,194c3.59.86,6.73,2.12,10.13,2.28C25.76,194.8,18.13,193,16.81,194Z"/><path class="cls-1" d="M178.47,195.14l7.67-2.22,5.2-1.48c2.52-.73,3.11-.45,4.39,2.25-2.11.59-4.18,1.19-6.26,1.76s-4.33,1.14-6.5,1.73C180.38,197.89,180.09,197.78,178.47,195.14Zm13.26-1.46c-.64-.32-1-.69-1.3-.62-3,.8-6.05,1.68-9.07,2.53C182.53,196.47,188.48,195.15,191.73,193.68Z"/><path class="cls-1" d="M33.35,191.35c-1,2.47-2.09,3.07-4.3,2.47l-12.91-3.53c.44-2.1,1.41-2.78,3.29-2.32C24,189.07,28.63,190.2,33.35,191.35Zm-2.34.73-8.53-2.35a2.33,2.33,0,0,0-.8-.16,11.39,11.39,0,0,0-1.41.33C21.91,191.4,29.74,193.1,31,192.08Z"/><path class="cls-1" d="M181.91,198.78c4.59-1.46,9.06-2.9,13.55-4.29,1.09-.34,3,1,2.92,2.13a1.45,1.45,0,0,1-.85,1c-4.15,1.35-8.32,2.67-12.5,3.92C183.81,201.9,182.71,200.89,181.91,198.78Zm12.74-1.25.15-.64c-.55-.12-1.16-.46-1.64-.33-2.57.71-5.11,1.51-7.64,2.35-.36.12-.57.69-.85,1.05.45.17,1,.58,1.33.47C188.9,199.52,191.77,198.51,194.65,197.53Z"/><path class="cls-1" d="M192.54,190.14c-4.85,1.33-9.53,2.74-14.29,3.85-1.58.37-2.36-1.19-3.3-2.59,1.43-.39,2.66-.75,3.9-1.05,3.27-.81,6.56-1.6,9.84-2.39C190.88,187.43,191.51,187.76,192.54,190.14Zm-4.53-.07c-.85-.77-8.24.77-10.2,2.12C178.72,193,186.37,191.41,188,190.07Z"/><path class="cls-1" d="M196.08,199.85l-4.74,4c-.4.28-.81.54-1.2.84-2.15,1.65-3.2,1.39-4.43-1.09-.09-.2-.14-.41-.27-.79l11.25-4.18Zm-2.56,1-.24-.26c-1.67.74-3.36,1.44-5,2.26-.37.19-.5.82-.74,1.25.57.16,1.39.64,1.68.41C190.74,203.38,192.1,202.08,193.52,200.84Z"/><path class="cls-1" d="M17.85,204.75l-5.49-4.91c-.06-.25-.13-.5-.26-1L23.19,203a16.67,16.67,0,0,1-1,1.68c-1.21,1.61-1.69,1.68-3.39.63C18.53,205.07,18.18,204.92,17.85,204.75Zm-2.78-4.15-.13.29c1.42,1.26,2.81,2.57,4.32,3.72.29.23,1-.15,1.59-.25-.15-.47-.16-1.21-.47-1.36C18.65,202.12,16.85,201.39,15.07,200.6Z"/><path class="cls-1" d="M47.59,150.19l1.84,2.63-3-.4Z"/><path class="cls-1" d="M40.41,27.39,35.88,23.1l-.06.6-2.26-2.86.35-.34c1.67,1.63,3.37,3.23,5,4.89A16.49,16.49,0,0,1,40.41,27.39Z"/><path class="cls-1" d="M90.61,87.43q3.47,4,6.94,8.08Q94.07,91.48,90.61,87.43Z"/><path class="cls-1" d="M70.24,64.27,76.85,72Q73.55,68.13,70.24,64.27Z"/><path class="cls-1" d="M108.71,102.4l-5.29-6.12Z"/><path class="cls-1" d="M66,59.18l4.31,5.14Z"/><path class="cls-1" d="M173.33,23.18c-1.25,1.08-2.52,2.14-3.73,3.27-.88.81-1.67,1.71-2.49,2.57,0-.2,0-.47.12-.6q3.81-4,7.64-7.93l.55.51C174.72,21.72,174,22.45,173.33,23.18Z"/><path class="cls-1" d="M142.48,60.21l4.3-5.3Z"/></svg>