<svg xmlns="http://www.w3.org/2000/svg" viewBox="0 0 157.39 148.01"><defs><style>.cls-1,.cls-2,.cls-3{fill:#fff;}.cls-2,.cls-3{stroke:#fff;stroke-miterlimit:10;}.cls-3{stroke-width:3px;}</style></defs><g id="Layer_2" data-name="Layer 2"><g id="Layer_1-2" data-name="Layer 1"><path class="cls-1" d="M154.16,77.28a10.27,10.27,0,0,0-.82-4,71,71,0,0,0-3.5-6.63c-2.26-3.81-5.2-7.11-7.94-10.56a3.09,3.09,0,0,0,.21-.82A2.34,2.34,0,0,0,139,52.56a.28.28,0,0,0-.18,0,11.35,11.35,0,0,0-3.62,2.67,22,22,0,0,1-2.74,2.08,23.63,23.63,0,0,0-7.86-4.83,18,18,0,0,0-2.55-.78c0-3.94-.37-9.17-2.39-12.63-.75-1.28-4.27-4.09-6.28-3.6a4,4,0,0,0-3.17.8c-1.67,1.17-2.82,3.4-3.91,5.19-1.18-1.75-1.79-4.28-2.47-6.19-.92-2.57-1.58-5.23-2.33-7.86-1.22-4.29-1.6-8.95-3.36-13.07a17.73,17.73,0,0,0-7.8-8.58C86.86,3.68,82.62.91,78.57.08a.32.32,0,0,0-.14,0L78.2,0a.35.35,0,0,0-.39.34A85.67,85.67,0,0,0,66.06,6.85C61.67,10,61,14.44,59.18,19.18c-2.41,6.22-5,12.55-7.8,18.61-2.12,4.6-5.75,9.09-5.3,14.42v0a8.79,8.79,0,0,0-1.15.57c-.1-.12-.21-.25-.3-.38-1.44-1.85-2.8-4.95-5.63-4.25a1.3,1.3,0,0,0-1.1,1.21c-.17.37-.22.77-.39,1.15a1.61,1.61,0,0,1-.15.26.66.66,0,0,0-.15.22c-.14.2-.3.4-.45.59A25.58,25.58,0,0,0,32,54.87a88.94,88.94,0,0,0-7.37,6.07,1.09,1.09,0,0,0-.13.17,26.18,26.18,0,0,1-3.36-1.41C19,58.53,16,56.56,13.45,57.25a2.08,2.08,0,0,0-1.24,2.36,2.11,2.11,0,0,0,1.22,1.54,1.78,1.78,0,0,0,.77.74,6.23,6.23,0,0,0-1.37,2.67c-.85,2.58-1.14,5.13-2.29,7.63S8.14,77.47,7,80.12a19.75,19.75,0,0,1-2.34,4.43,3.78,3.78,0,0,0-3.52,0C-2.58,86.7,4,90.05,5.44,90.74c8.27,4.06,16.91,8,26,10.05a20.39,20.39,0,0,0,5,1.36,6.79,6.79,0,0,0,.78,0c-.28,1.57.71,3.13,1.08,4.64a.83.83,0,0,0,.22.39v.23a.37.37,0,0,0,.11.27.41.41,0,0,0,0,.16s0,.05,0,.08a.44.44,0,0,0,0,.1,8.08,8.08,0,0,0-1.35,4.33.46.46,0,0,0,.18.34.29.29,0,0,0,0,.1,5.26,5.26,0,0,0,1.28,1.85,10.31,10.31,0,0,1,1,1l.08.12c-.67,3.07.56,6.48,1.4,9.36.73,2.52,1.28,6.19,3,8.65a8.74,8.74,0,0,0,.81,1.5A13.39,13.39,0,0,0,48,138.28,39,39,0,0,0,57.88,143c3.71,1.32,7.53,2.42,11.33,3.45a62.54,62.54,0,0,0,6.5,1.37,23.82,23.82,0,0,0,3.55-.06,9.72,9.72,0,0,0,1.32.06,3.53,3.53,0,0,1,.76.2c.16.07.26-.11.21-.25,3.12-.3,6.32-1.73,9.19-2.53a52.41,52.41,0,0,0,14.86-7c4.06-2.72,7.35-5.71,8.91-10.43a61.9,61.9,0,0,0,1.55-7.52c.5-2.56,1.22-5.1,1.06-7.72l.43.27c.08.53.31.9.88.8a.64.64,0,0,0,.45-.45c.25-1.74.78-3.41,1-5.13.14-1-.06-1.42-.5-1.8a8.29,8.29,0,0,0-2.34-2.47c.91-1.29.6-3,.27-4.68l0-.25a38.34,38.34,0,0,0,.36-7c0-1.87-.38-3.72-.49-5.59A34,34,0,0,0,117,82.5c3.37-1.71,7-3,10.14-5,.64,1.07,1.29,2.12,2,3.17a11,11,0,0,0,2.89,3.58c-1.8.51-2,3.33.18,3.33,2.63,0,5.4-1.16,7.92-1.85,3.07-.84,6.12-1.71,9.17-2.61,2.16-.64,6.41-.83,7.78-2.86S156,77.28,154.16,77.28ZM120.83,51.49a6.24,6.24,0,0,0-3.73.5l-.37,0a11.55,11.55,0,0,0-5.39,2.54c-1.87,1.5-3.48,3.28-5.49,4.61A16.47,16.47,0,0,0,102.16,63c-.06.09.07.16.13.11,2.66-2.24,5.52-4.12,8.19-6.33A18,18,0,0,1,121.27,53c3.57,1,6.66,3.51,10.16,4.95l-1.94,1.2c-2.61,1.64-6,3.23-7.73,5.94a.83.83,0,0,0-.08.22c-1,1.76,2.61,7.36,3.62,9l-.4.14a5.71,5.71,0,0,0-1.27.46,37.44,37.44,0,0,0-8.23,4c-1.61,1.12-3.08,2.44-4.65,3.6a15.39,15.39,0,0,0-2.85,2.48h0c-4.1-3.24-8.33-6.3-12.42-9.56l.09,0c.09,0,.14-.11.07-.16-1.35-.89-4-2.68-4.36-4.59,1.83-3,4.18-5.69,6.22-8.57s4-5.82,6-8.75c1.58-2.32,3.2-4.62,4.68-7a31.61,31.61,0,0,1,3.42-4.71,10.39,10.39,0,0,1,2.9-2.24,5.67,5.67,0,0,1,3.49-.33,9.35,9.35,0,0,1,1.46,2.91A44.12,44.12,0,0,1,120.83,51.49ZM103.32,84.41a66.08,66.08,0,0,1-5.69-5c-1.67-1.51-3.38-3-5.07-4.48a13.82,13.82,0,0,1-2.89-2.67h.16a.83.83,0,0,0,.34-.1,1.47,1.47,0,0,0,.1.22A3.08,3.08,0,0,0,92,73.47a50.67,50.67,0,0,0,8.68,7.87c1.64,1.29,3.29,2.57,4.93,3.87a1.86,1.86,0,0,0,1.84.56l0,0a.3.3,0,0,0,0,.33l0,.06c-.37,0-.75.07-1.12.08A18.7,18.7,0,0,1,103.32,84.41ZM89,76.56v0c0,.1,0,0-.06.08s-.08,0-.1.06h-.15a.68.68,0,0,1-.33-.16.41.41,0,0,1-.12-.19.61.61,0,0,0,.05-.12,1.54,1.54,0,0,0,0-.31,1.11,1.11,0,0,0,.3.08,1.06,1.06,0,0,0,.25,0,1.44,1.44,0,0,0,.16.33l0,.14A.08.08,0,0,0,89,76.56Zm-7.76-.16s0,0-.06.06l-.1-.07a2.38,2.38,0,0,0-.29-.17l.16-.06a1.27,1.27,0,0,0,.5-.4,2.47,2.47,0,0,0,.1.29A3.52,3.52,0,0,0,81.22,76.4ZM66.49,74.78s-.06,0-.1-.06c-.53-.14-.86.85-1,1.18s-.18.43-.41.4a1.19,1.19,0,0,1-.79-.47,2.78,2.78,0,0,1-.38-.82.18.18,0,0,1,0-.1,2.38,2.38,0,0,0,1.58-1,1.73,1.73,0,0,0,.18-.36h.07a1.45,1.45,0,0,0,1.12.45A5.94,5.94,0,0,0,66.49,74.78ZM62.58,75a3.06,3.06,0,0,0-.35.81c0,.19,0,0-.08.21h0s-.12,0-.1,0l-.12,0a2.25,2.25,0,0,1-.21-.12l-.08-.05,0,0-.24-.21a1.14,1.14,0,0,1-.25-.3,2.09,2.09,0,0,0,.75-.64,3.11,3.11,0,0,0,.31-.61,2.16,2.16,0,0,0,.39.48,1.26,1.26,0,0,0,.31.22v0A.55.55,0,0,0,62.58,75ZM62.1,76Zm0,0Zm0,0h0Zm0,0Zm.06,0h0Zm-3.8-2.42.43-.34a2.3,2.3,0,0,0,1.13,2.07h0a2.62,2.62,0,0,0-.29.32c-.12.16-.31.51-.56.46s-.44-.5-.54-.7A3.06,3.06,0,0,1,58.35,73.6ZM76,42.71c.38-2.72.24-5.43.94-8.11a.56.56,0,0,0-.49-.7.83.83,0,0,0-.07-.13c-.58-.72-2.2-.7-3-.86-1.73-.32-3.46-.62-5.19-.92A10.6,10.6,0,0,0,68,30.67c-.11-1.06-.12-2.1-.16-3.15a35.65,35.65,0,0,0,4.87.62,32.41,32.41,0,0,0,7.09.54,50,50,0,0,0,10.39-1.33,9.59,9.59,0,0,1,.49,3.11,3.76,3.76,0,0,0,.23,1.7,45.22,45.22,0,0,0-9,.71l-.17.05a5.51,5.51,0,0,1-.79.1.68.68,0,0,0-.67.67,46.51,46.51,0,0,0,1,6.18,66.59,66.59,0,0,0,1.35,6.72c.58,2.2,1.15,4.29,1.56,6.55.19,1.07.35,2.16.53,3.24a14,14,0,0,0-4,0c-2.2,0-4.43.09-6.63.25.12-1.59.22-3.18.48-4.79C75,48.76,75.55,45.76,76,42.71Zm-9.46-11a.5.5,0,0,0-.22-.4c.14.1-.35-2-.24-1.5a5.33,5.33,0,0,1,.36-2.61l.72.17a6.58,6.58,0,0,0-.29,2.47,18.22,18.22,0,0,0,0,1.93Zm25.93-.1c0,.37.14.48-.15.63l-.57,0c.11-.25.05-.44,0-.83-.07-.61-.09-1.22-.15-1.84a4.74,4.74,0,0,0-.75-2.36c.47-.14.94-.29,1.39-.46C91.78,28.24,92.37,30.08,92.46,31.61ZM89.12,74.75a.47.47,0,0,1-.06.28v0l0,0c.08-.07-.07,0-.06,0l-.11,0h-.11c-.12,0,0,0-.08,0l-.16,0L88.25,75l-.11-.12a.39.39,0,0,1,0-.06,2,2,0,0,0,.28-.64,1.42,1.42,0,0,0-.63-1.57,2,2,0,0,0,.34-.56,3.15,3.15,0,0,0,.19,1,3.2,3.2,0,0,0,.82,1.17,0,0,0,0,0,0,0A2.32,2.32,0,0,0,89.12,74.75Zm-6.25-2.81c.21.47.28.76-.18,1.07a1.1,1.1,0,0,1-1,.09,1.4,1.4,0,0,0-.41-.52h0a.21.21,0,0,0-.08-.17l.13-.17a2,2,0,0,0,.35-1l0,.06a2.29,2.29,0,0,0,1.07.55Zm-2.46,2.92a.39.39,0,0,1-.1.08s0,0,0,0A.15.15,0,0,0,80,75h0a.77.77,0,0,1-.46-.28,3.68,3.68,0,0,1-.4-1.14,2.09,2.09,0,0,0,0-.25A2.31,2.31,0,0,0,80.6,73a1.12,1.12,0,0,0,.2.82A1.61,1.61,0,0,1,80.41,74.86Zm-3.72-1.21a1.68,1.68,0,0,1-.36-.76,1.4,1.4,0,0,0-.08-.34s0,0,0-.06a1.29,1.29,0,0,0,1.56-.4,1.91,1.91,0,0,0,.55.86l.07,0c0,.11-.09.24-.15.35a3.9,3.9,0,0,1-.46.61C77.4,74.45,77,74,76.69,73.65Zm-2.24,0a1.33,1.33,0,0,1-1.12-.23,1.19,1.19,0,0,1-.32-.8c.1,0,.2,0,.3-.06a2.1,2.1,0,0,0,.89-3.35,2.57,2.57,0,0,0-2-.73,2.54,2.54,0,0,0-.41-1,1.2,1.2,0,0,0-.48-.42.45.45,0,0,0-.08-.23.6.6,0,0,0,.06-.11,1.86,1.86,0,0,0,1.85.54,1.7,1.7,0,0,0,.61,1.47,2.48,2.48,0,0,0,1.35.63.93.93,0,0,0,0,.44,1.13,1.13,0,0,0-.34.53,1.74,1.74,0,0,0,.74,1.77h0a1.74,1.74,0,0,0-.14.27,1,1,0,0,0-.06.27,2.2,2.2,0,0,0-.17.25A1.67,1.67,0,0,1,74.45,73.66Zm-2,.32c0,.09.09.16.13.24l0-.06a.27.27,0,0,0-.34,0l-.07,0-.11,0s-.17,0-.17,0-.11-.14-.2-.29a2.05,2.05,0,0,1-.23-1l.19,0a.13.13,0,0,0,0-.25l-.12,0a2.53,2.53,0,0,0,0-.38,1.82,1.82,0,0,0,.94.44A1.76,1.76,0,0,0,72.4,74Zm-5.84-1.12h0c-.08,0-.21-.06-.29-.07a.44.44,0,0,1-.15-.08.86.86,0,0,1-.07-.1,1.57,1.57,0,0,1-.17-.21.31.31,0,0,0-.07-.09,1.83,1.83,0,0,1-.28-.6,2.64,2.64,0,0,0,.75-.74,1.45,1.45,0,0,0,.21-1,1.92,1.92,0,0,0,.31-.18,2.59,2.59,0,0,0-.08,1,1.4,1.4,0,0,0,.53.86s0,0,0,0h0a1.64,1.64,0,0,0-.26.53A1.26,1.26,0,0,1,66.56,72.86Zm-3,.71c-.48-.07-.9-1-.57-1.39a.16.16,0,0,0-.13-.27,1.07,1.07,0,0,0,0-.4,1.71,1.71,0,0,0,1.39.62,1.47,1.47,0,0,0,.36,0,1.89,1.89,0,0,0,.2.69l-.24.15C64.23,73.09,63.94,73.62,63.55,73.57ZM60.78,74h0a1.15,1.15,0,0,0-.29.16c-.33,0-.56-.74-.63-1s-.35-1.06-.16-1.44a.16.16,0,0,0,0-.15,1.91,1.91,0,0,0,.49-.4,1.69,1.69,0,0,0,1.17.63,1.3,1.3,0,0,0,.44-.06l-.12.29a1,1,0,0,0-.07.85l0,.06c-.13.16-.24.34-.36.46S61,73.84,60.78,74ZM88.1,61.61l.12.3c0-.11-.1-.2-.15-.29Zm1.5,5.54.09,0a12.41,12.41,0,0,0-1.44,3.4,3.3,3.3,0,0,0-.35-1,2.16,2.16,0,0,0,.38-.27c.35-.33.86-1.52.42-1.91h0c.07,0,.15-.09.22-.15a1.43,1.43,0,0,0,.25-.35A1.06,1.06,0,0,0,89.6,67.15Zm.27-1h0Zm-2.82,5a1.31,1.31,0,0,1,0,.15.53.53,0,0,1,0,.15l-.06.13s0,0,0,0l0,0,0,0h0l0,0h-.1a.6.6,0,0,1-.21,0,.86.86,0,0,1-.67-.75,3.09,3.09,0,0,1-.09-.53.49.49,0,0,1,0-.17.23.23,0,0,0,.11,0,7.51,7.51,0,0,0,.76-.57l.14,0s0,0,0,0h0l0,.06a1.62,1.62,0,0,1,.1.18s.07.19.11.32a2.73,2.73,0,0,1,.07.36A3.69,3.69,0,0,1,87.05,71.21Zm-2.84-2.74a1.67,1.67,0,0,0,.65-.84l.16.1.21.07A1.74,1.74,0,0,0,85.59,69a1.37,1.37,0,0,0-.42.92s0,0,0,0a1.11,1.11,0,0,0-.27.26A2.45,2.45,0,0,0,84.21,68.47Zm-.68,2.26c-.28.2-.78,0-1.18-.23a.4.4,0,0,0,.14-.15c.13-.32.21-1.61.81-1.28A1.05,1.05,0,0,1,83.53,70.73Zm-11.29.68a1.12,1.12,0,0,1-.51-1.09l.09,0a.14.14,0,0,0,0-.26l-.14,0,.08-.07a1.07,1.07,0,0,1,.61-.18,1.44,1.44,0,0,1,.75.18.7.7,0,0,1,.39.49,1.11,1.11,0,0,1-.29.91A.84.84,0,0,1,72.24,71.41Zm-1.1-2.69a1.66,1.66,0,0,0-.34.22c-.29-.11-.51.12-.61.39,0,.07,0,.14,0,.21h0s0,0,0,0h-.07l-.08,0h0l-.06,0h0l0,0,0,0h0a.29.29,0,0,1,0-.09s0,0,0-.06v-.1a.08.08,0,0,1,0,0A1,1,0,0,0,70,69a2.16,2.16,0,0,0,.77-1.33l.08.07a1,1,0,0,1,.21.34c.08.2.12.41.18.61ZM65.3,70.09s0,.06,0,.17a1.54,1.54,0,0,1-.78.6.67.67,0,0,1-.81-.12c-.26-.33-.49-1.34,0-1.51a3.45,3.45,0,0,0,1.57.85h0S65.31,70.11,65.3,70.09Zm8.26-9.35a.81.81,0,0,0,.12-.14c0,.06-.05.12-.08.19a.84.84,0,0,0-.24.14l-.12.11a.54.54,0,0,0,0-.22A.31.31,0,0,0,73.56,60.74ZM81,60.17a2.6,2.6,0,0,0,1.35.48,2.86,2.86,0,0,0-.24.42,2.27,2.27,0,0,0-.23,1,1.29,1.29,0,0,0-.47.36,1.34,1.34,0,0,0-.22.38l0,0,0,0,0,0-.16-.07c-.16-.1,0,0-.12-.09a2.17,2.17,0,0,1-.37-.42,3.89,3.89,0,0,1-.5-1,.3.3,0,0,1,0-.1A1.52,1.52,0,0,0,81,60.17Zm3-1.26s0,0,0,0Zm2.71,3.4c.13-.06.27-.07.4-.13l.16-.07s0,0,0,.06a2.16,2.16,0,0,1,.09,1.25c0,.12-.06.23-.09.32a1.26,1.26,0,0,0-.72.41.49.49,0,0,1-.39-.45c0-.15,0-.31,0-.46A.79.79,0,0,0,86,63a.11.11,0,0,0-.06-.09,2.24,2.24,0,0,1,.11-.34c.1-.23.19-.46.3-.69a2.08,2.08,0,0,0,0,.23C86.34,62.3,86.52,62.36,86.64,62.31Zm-19.88,2a1.24,1.24,0,0,1-.79,1,1,1,0,0,1-1.28-.78c-.23-.75,0-1.76,1-1.22a.23.23,0,0,0,.31-.1l.59.2C66.53,63.73,66.82,64,66.76,64.3ZM65.61,67h.08l.07,0h0l0,0,.12.08.1.09a.35.35,0,0,1,.09.11,1.42,1.42,0,0,1,.26.7,1.12,1.12,0,0,1-.09.53.69.69,0,0,1-.44.39.41.41,0,0,1-.23,0,3.28,3.28,0,0,1-.51-.15,3.85,3.85,0,0,1-.84-.47l-.13-.1,0,0c0-.07,0-.14,0-.21a.55.55,0,0,0,.51-.12c.26-.21.46-.61.67-.77l.16-.1C65.45,67.06,65.6,67,65.61,67Zm-9.73-1.93a1.2,1.2,0,0,1-.23-.37.74.74,0,0,1,.18-.55,3,3,0,0,1,.3-.26A9.15,9.15,0,0,1,55.88,65.06Zm20-6.45.09,0a1.58,1.58,0,0,1,.65.41c.12.16-.23.46-.43.5-.38.1-.7-.41-.74-.84A.58.58,0,0,0,75.86,58.61Zm5.27,4.21Zm3.54-2,.14-.06a1.29,1.29,0,0,1,0,.73.88.88,0,0,1-1,.63,1.58,1.58,0,0,0,.19-.37,5.63,5.63,0,0,0,.18-.91A1.47,1.47,0,0,0,84.67,60.82Zm0,3.07L84.6,64A2.07,2.07,0,0,0,84,65a.69.69,0,0,0-.32,0l-.2-.06a2.12,2.12,0,0,1-.74-.66,1.82,1.82,0,0,1-.38-.89c0-.35.24-.86.59-.43a.22.22,0,0,0,.28.06l.24.11a1.6,1.6,0,0,0,1.1,0A1.46,1.46,0,0,0,84.72,63.89Zm-.91,3a1.86,1.86,0,0,0,0,.22l0,.11a.19.19,0,0,1,0,.07h0l0,.07s0,.06-.06.07l0,0h0l-.08,0h0a.88.88,0,0,1-1.06-.64.48.48,0,0,0,.17,0,1.08,1.08,0,0,0,.5-.28l.15-.15.1-.1a1,1,0,0,0,.25,0,.57.57,0,0,1,.08.13v0h0l0,.14,0,.14v0A.42.42,0,0,0,83.81,66.93Zm0-1.89c.13,0,.2.06,0,0Zm-.2,0h0a.47.47,0,0,0-.09.06Zm0,0ZM81,62.87l-.06,0,.06,0Zm-5.38,1.36a.48.48,0,0,1,0,.08l0,0s0,0,0,0h-.1s-.12,0-.15,0-.12-.07-.16-.09a1.91,1.91,0,0,1-.24-.3c-.12-.19-.23-.4-.35-.6,0,0,0,0,0,0a.49.49,0,0,1,.25-.31,2.45,2.45,0,0,0,.54,0,.89.89,0,0,1,.19.3,2.08,2.08,0,0,1,.15.78S75.59,64.28,75.61,64.23Zm-.74-2.71h0s0,0,0,0Zm3.39,3.74,0,0a1.37,1.37,0,0,1-.17.17,1.59,1.59,0,0,1-.13.13l-.07.06h0l-.28.16-.17-.44a.45.45,0,0,0-.27-.27l.06-.1a1.31,1.31,0,0,1,.6-.49,2,2,0,0,0,.69,0h0l0,0a0,0,0,0,0,0,0v.08a.68.68,0,0,0,0,.14s0,0,0,0,0,0,0,0a2.39,2.39,0,0,1-.21.34Zm-.64.78h0S77.63,66.06,77.62,66Zm.58-3h0l0,0Zm.69-.31a1.08,1.08,0,0,0-.4.11.85.85,0,0,0-.19.14l0,0h0l-.05,0h0s0,0,0,0h0l-.11,0L78,63c.05,0-.08-.05-.1-.06s0,0,0,0l-.12-.12c.1.1,0-.14,0-.12l0-.08a.86.86,0,0,1,0-.16v-.06l.06-.23a.79.79,0,0,1,.06-.22.69.69,0,0,0,.5.23.62.62,0,0,0,.37-.11,2.66,2.66,0,0,0,.26.68ZM75.6,61.44ZM76.79,64l-.06,0V64Zm-1.65-3.37.08,0h0a1.2,1.2,0,0,0,.16.43,1.45,1.45,0,0,1,.2.39.88.88,0,0,1-.7.07h0v0s0-.12,0-.13,0-.2,0-.3v-.25A1.17,1.17,0,0,1,75.14,60.66Zm-6.23,4.9a.65.65,0,0,0-.16-.13c.12.07,0,0,0,0a.66.66,0,0,1-.08-.13,3.11,3.11,0,0,1-.06-.92h0a.2.2,0,0,0,.29-.1.42.42,0,0,1,.31.07,1.79,1.79,0,0,1,.45.46,1.81,1.81,0,0,1,.27.56s-.15.15-.18.18a.67.67,0,0,0-.15.25A4,4,0,0,0,68.91,65.56ZM64.1,66.77A2.77,2.77,0,0,0,62.22,65a1.89,1.89,0,0,0-1.27.15,5,5,0,0,0,.11-.53,1.94,1.94,0,0,0,1.53.1,1.35,1.35,0,0,0,.76-.66,2.68,2.68,0,0,0,1.08,2.33A2.13,2.13,0,0,0,64.1,66.77ZM70,65.37ZM56.29,62.21h0l-.11.12-.08.06-.09.06h0l0,0-.06-.05v0l0-.07a2.39,2.39,0,0,1-.12-.22,1.24,1.24,0,0,1-.08-.84.52.52,0,0,1,0-.11,1,1,0,0,0,.29.36.17.17,0,0,0,.14,0l.24-.22h.11l.11,0h0l0,0h0a.43.43,0,0,1,0,0v.19a1,1,0,0,1,0,.17.76.76,0,0,1,0,.11.67.67,0,0,1-.06.12,1.19,1.19,0,0,1-.09.15A.21.21,0,0,1,56.29,62.21Zm4.33-1.3Zm7,1.1h0a.64.64,0,0,1,0,.07l0,0A.07.07,0,0,0,67.59,62ZM58.24,59.3s0-.07,0,0Zm.81.91a2.35,2.35,0,0,1,.14-.37c.31.19.62.39.94.57a.35.35,0,0,0,.06.18.72.72,0,0,0,.33.29l.1.06h0v0h0a.6.6,0,0,1-.06.19v0l0,0a1.18,1.18,0,0,1-.11.19,1,1,0,0,1-.19.25,1.59,1.59,0,0,1-.13.13s-.18.15-.1.09-.32.18-.25.15l-.15,0h-.13c-.08,0,0,0-.1,0a1.56,1.56,0,0,1-.38-.73A1.74,1.74,0,0,1,59.05,60.21Zm2.33,1.87a2.78,2.78,0,0,0,.27-.51l0-.07a.29.29,0,0,1,.13,0,1.06,1.06,0,0,0,.47.2l.08,0v.08s0,0,0,0v-.08c.31.1.38.34.39.68,0,.56-.6,1.61-1.25,1A1.76,1.76,0,0,1,61.38,62.08ZM51.26,53.23s0,0,0,.05-.05-.09-.07-.14Zm2.5,2.49h0a.22.22,0,0,0,.26-.18l.13.1.93.91a.43.43,0,0,0,0,.32c.08.39.23.57,0,.94a1,1,0,0,1-.94.42C53.09,58,53.48,56.5,53.76,55.72Zm3.43,4.13h-.06a.75.75,0,0,1,0-.16c0-.12.08-.47.13-.88-.07.35-.16.69-.25,1-.34-.1-.29-.65-.27-.95a3.24,3.24,0,0,1,.12-.68l.43.35,0,.25a2,2,0,0,0,.05-.24c.12.1.24.2.37.29l.3.21a.46.46,0,0,0,.17.3h0a1.32,1.32,0,0,1-.28.25A1.35,1.35,0,0,1,57.19,59.85Zm6.45,3.3c0-.11,0-.23.07-.35a1.87,1.87,0,0,0,0-.53l.65.32A1.29,1.29,0,0,0,63.64,63.15Zm5.62.11h.07v0Zm-6.57-6.15,0,0,0,0,.08,0Zm-10.5-1.83c.06,0-.06,0-.06,0l-.06,0,0,0s-.06-.08-.08-.11a1.27,1.27,0,0,1-.13-.61.59.59,0,0,1,0-.13L52.2,54l.33.28.32.27v.06a.74.74,0,0,0,0,.14s0,0,0,.06c0-.12,0,.06,0,.09l0,0-.11.12a.39.39,0,0,1-.11.08s-.24.13-.17.1A1.41,1.41,0,0,1,52.19,55.28Zm1.42,4.93a.14.14,0,0,0,.22,0q-.12,0,0,0A.34.34,0,0,0,54,60a2.57,2.57,0,0,1,.29-.28.62.62,0,0,1,.65.09s0,.14-.05.28a1.11,1.11,0,0,1-.5.48c-.39.21-.61-.08-.77-.4Zm1.1,2.37ZM57.58,62a1.67,1.67,0,0,0,0-1.06,1.94,1.94,0,0,0,.33-.07,2.55,2.55,0,0,0,.58,1.8,3.23,3.23,0,0,0-.64.64,1.5,1.5,0,0,0-.55-.64A2.34,2.34,0,0,0,57.58,62Zm1.65,3.57c-.27.08-.48-.22-.6-.41a1,1,0,0,1-.08-.84,2.18,2.18,0,0,1,.59-1.09c.36.15.91.33,1,.63A1.72,1.72,0,0,1,59.23,65.59ZM61,67.2c.35-.47.31-1.08,1-.89a1.26,1.26,0,0,1,.84,1.4.7.7,0,0,1-1.14.52,2,2,0,0,1-.8-1ZM68.14,67a.2.2,0,0,0,.11-.3,3.24,3.24,0,0,1,.75.16.76.76,0,0,1,.39.28l0,0,0,.12c0-.17,0,.27,0,.09a.61.61,0,0,1-.07.22c0,.06-.19.29-.11.21a.88.88,0,0,1-.4.33.35.35,0,0,1-.29,0l-.07,0a2.34,2.34,0,0,1-.32-.31C68,67.6,67.76,67.18,68.14,67Zm2.7-2.49h0v0S70.84,64.56,70.84,64.55Zm2.23-2.42a1.7,1.7,0,0,1,.31-.06l0,0a.65.65,0,0,0,.56.5l.08.07a1.12,1.12,0,0,0-.11.56.34.34,0,0,0-.06.06s0,0,0,.08A1.54,1.54,0,0,0,73,63,1.45,1.45,0,0,0,73.07,62.13Zm1.46,3.14,0,0,0,0Zm1.69,0a1.3,1.3,0,0,0,0,.21,1.31,1.31,0,0,0-.12-.11h0Zm4.81.6a.92.92,0,0,0-.19-.25l-.09-.1v0a1.24,1.24,0,0,1-.26-.6l0-.2h0v0c0-.12,0-.24,0-.36,0,.12,0,.07,0,0s0,0,0,0l.1,0a1.42,1.42,0,0,0,.59,0l.15.37a3.37,3.37,0,0,0,.93,1.11,1.07,1.07,0,0,0-.16.55.46.46,0,0,0-.07.07,1.28,1.28,0,0,0-.26-.3A1.72,1.72,0,0,0,81,65.87Zm4.53-1.46a1.18,1.18,0,0,0,.53.55,2.5,2.5,0,0,0,.12,1.68.4.4,0,0,0-.37.06c-.09.08-.19.08-.11.12a.83.83,0,0,1-.21-.16,1.84,1.84,0,0,1-.44-.78A1.24,1.24,0,0,1,85.56,64.41Zm2.15,4a.68.68,0,0,1-.24.08,1.18,1.18,0,0,1-.62,0c-.29-.08-.38-.39-.45-.64a.73.73,0,0,1,.18-.66,1.66,1.66,0,0,0,1.68.41,6.6,6.6,0,0,1-.37.7A1.84,1.84,0,0,0,87.71,68.38Zm.68-2.22c-.33.33-.72.51-1.12.12a1.31,1.31,0,0,1-.18-1.14v0a1.46,1.46,0,0,0,.86-.61,1.87,1.87,0,0,0,.79.74A1.94,1.94,0,0,1,88.39,66.16ZM52.06,57.22a2.14,2.14,0,0,0,.22-.72s0,0,0-.07h.13a2.79,2.79,0,0,0-.1.82A.54.54,0,0,0,52.06,57.22ZM54,61.7a1,1,0,0,0-.14.15l0-.18Zm.62.92h0s0,0,0,0a1,1,0,0,1,.12.28,1.19,1.19,0,0,1,0,.33c-.27-.14-.51-.31-.55-.51A.76.76,0,0,0,54.63,62.62Zm1.6,1.26s0,0,0-.07c.18-.11.38-.17.51,0,.32.3.22.83.12,1.2s-.45.44-.74.27A4.81,4.81,0,0,0,56.23,63.88Zm1,2.35a1.09,1.09,0,0,0,.17-.13l0,0c.59.18,1.23.59.84,1.21,0,0-.07,0-.06,0s0,0,0,.06l-.05.06a6.92,6.92,0,0,1-.53.56H57.6s0,0-.05,0h0a.41.41,0,0,1-.11-.07s-.09-.1-.1-.11A2.47,2.47,0,0,1,57.26,66.23Zm1.19,3.56c-.07-.27-.17-.52,0-.76a.73.73,0,0,1,.72-.24c.44.09.43.83.42,1.15a.88.88,0,0,1-.77.85c-.4,0-.9-.09-1-.51A.43.43,0,0,0,58.45,69.79Zm1-2.06a1.92,1.92,0,0,0,.09-1,1.38,1.38,0,0,0,.39-.18,2,2,0,0,0,0,1.32A1.34,1.34,0,0,0,59.44,67.73Zm1.21,1.43a1.84,1.84,0,0,0,.22.17,2.22,2.22,0,0,0,1.08.43,1.72,1.72,0,0,0-.33.68c-.07.14-.15.26-.31.22a1.14,1.14,0,0,1-.6-.46.21.21,0,0,1,0-.06c0-.1,0-.2,0-.3A2.57,2.57,0,0,0,60.65,69.16Zm1.92,2v0a.08.08,0,0,0,0,0Zm4.63-5.06a1.71,1.71,0,0,0,.1.79l0,0a2.42,2.42,0,0,0-.4-.55A2.1,2.1,0,0,0,67.2,66.13Zm.26,2.72,0,0h0s0,0,0,0A.06.06,0,0,1,67.46,68.85ZM68.33,71c-.94-.23-.5-1.11-.69-1.78l.06-.07h0a1.42,1.42,0,0,0,1.32.33,1.11,1.11,0,0,0,.3.69c-.06.13-.1.27-.15.4C69,71,68.8,71.1,68.33,71Zm1.83-1.42Zm2.22-4.94c0-.34.17-.81.62-.6s.47.71.49,1.07a1.28,1.28,0,0,1-.42,1.09c-.31.3-.68.16-1-.08C72.47,65.7,72.34,65.12,72.38,64.62ZM75,66.54a.65.65,0,0,1,.66-.15c.71.2.45,1.33.2,1.76s-1,.15-1.35-.09a1.08,1.08,0,0,1-.45-.72A6.42,6.42,0,0,0,75,66.54Zm1.76,4.91-.1,0a1.41,1.41,0,0,1-.87-.6.77.77,0,0,1,0-.87l.17-.09a.29.29,0,0,1,.1,0s0,0,0-.09h0l.06,0,.1,0h0l.06,0h0l.13.13s0,0,0,0l0,0a2.82,2.82,0,0,1,.21.38l0,0a.17.17,0,0,0,0,.07,1.72,1.72,0,0,1,.07.21,2.25,2.25,0,0,1,0,.22s0,.06,0,.09,0,0,0,.06,0,.13,0,.2,0,.08,0,.12l0,.12h-.1Zm.28-2.9a.65.65,0,0,1-.09-.23,2.08,2.08,0,0,0,.17-.65.7.7,0,0,1,.45-.23,1.08,1.08,0,0,1,1.1.56,1.26,1.26,0,0,1,.16,1.08,1.86,1.86,0,0,1-.1.25,1.4,1.4,0,0,0-.33.24h0a.44.44,0,0,0-.56.39,3,3,0,0,0-.25-.51,2.24,2.24,0,0,0-.63-.67A.16.16,0,0,0,77,68.55Zm1,2.18a2.44,2.44,0,0,0-.06-.26.47.47,0,0,0,.17.15A1.14,1.14,0,0,0,78,70.73Zm.66.87a.81.81,0,0,1,.18-1,0,0,0,0,0,0,0,1.17,1.17,0,0,0,.28-.17,1.22,1.22,0,0,1,1.1,0,.89.89,0,0,1,.19,1,1.2,1.2,0,0,1-1.16.73C79,72.12,78.8,71.82,78.69,71.6Zm1.21-2.49A2.37,2.37,0,0,0,79.78,68a3,3,0,0,1,.36-1l0,0h0l.23,0,.31-.09a.65.65,0,0,0,.26-.19l.11,0c.1.06.13.28.14.39a1.28,1.28,0,0,0,.12.61.44.44,0,0,0,.47.18,1.35,1.35,0,0,0,.29.35l-.09,0a1.69,1.69,0,0,0-.46.77.22.22,0,0,0-.14.06,1.22,1.22,0,0,0-.28.49A2,2,0,0,0,79.9,69.11Zm5,3.94h0Zm.29-14.27a.32.32,0,0,0-.21,0,.55.55,0,0,0-.19.12.64.64,0,0,0-.1.13c0-.07-.1.07,0,0a1.73,1.73,0,0,0-.21.17l-.31,0-.13-.12-.17-.21,0,0-.1-.15a1.32,1.32,0,0,1-.12-.2,1.11,1.11,0,0,1,.24-.16c.23-.11.46-.17.68-.3a.51.51,0,0,0,.22-.58l.09,0C85,57.87,85.08,58.33,85.19,58.78Zm-2.81.37a.23.23,0,0,1-.14,0A1,1,0,0,1,81.8,59a1,1,0,0,1-.48-.56,2.13,2.13,0,0,1-.06-.6h1A2,2,0,0,0,82.38,59.15Zm-2.27-.08a.53.53,0,0,0-.14.12c-.12.15-.21.33-.33.48s-.15.11-.1.1c-.28,0-.57-.26-.77-.45a1.56,1.56,0,0,1-.56-1l0-.42,1.71-.11h.29a1,1,0,0,0-.08.18A1.55,1.55,0,0,0,80.11,59.07Zm-5.58,1a.5.5,0,0,0-.56.09l-.09.13a1.16,1.16,0,0,0,.09-.41.31.31,0,0,0-.2-.27c0-.22,0-.45.08-.66l.09-.91.55,0a1.61,1.61,0,0,0,0,2Zm-3,1.33a1.14,1.14,0,0,1,.38.52c0,.12.17.52,0,.59-.48.18-.88-.31-1.31-.53a4.46,4.46,0,0,0-.21-.94C70.77,61.14,71.16,61.26,71.54,61.37ZM48,55.13a.38.38,0,0,1,0,.1.24.24,0,0,1-.31.13.26.26,0,0,1-.13-.08A.55.55,0,0,0,48,55.13Zm.55-1.61a1.57,1.57,0,0,1,0-.86.05.05,0,0,1,0,0l.08,0c.29.11.61.09.91.19a1.73,1.73,0,0,1,.88.76.89.89,0,0,1-.94,1.33C48.94,54.79,48.64,54,48.5,53.52Zm.94,2.62a1.46,1.46,0,0,0,.74-.07,1.57,1.57,0,0,0,.26-.12.56.56,0,0,0,.46.12,1,1,0,0,0,.19,0l0,.08a.68.68,0,0,1,0,.54c-.2.43-.92,1.2-1.46.75A1.49,1.49,0,0,1,49.44,56.14Zm1.75,2.09.23-.17h0a.13.13,0,0,0,.15.13l.07,0a.45.45,0,0,0,.23,0l.17,0c-.15,0,.06.06.05,0h0l.1.09c-.07-.07.07.13.09.17l0,0v0l.06.19a1.37,1.37,0,0,1,0,.48.38.38,0,0,1-.06.19l-.05,0s0,0,0,0a1,1,0,0,1-.59.09c-.32,0-.45-.21-.59-.47a.62.62,0,0,1,.14-.75A.1.1,0,0,0,51.19,58.23Zm1.47,2.3a1.58,1.58,0,0,0,.33.63s0,0,0,0c.34.29.23.78.15,1.16a.66.66,0,0,1,0,.15l0,.09c-.15.28-.43.38-.56-.11s.22-1,.07-1.57a2.11,2.11,0,0,0-.1-.3ZM54,63.17a1.76,1.76,0,0,1,.07-.4l0,0a2.56,2.56,0,0,0,.77.5c0,.35-.21.68-.55.71-.09,0-.11,0-.2-.17A1.23,1.23,0,0,1,54,63.17Zm2.38,3.25c0,.06,0,.12-.07.19a1.47,1.47,0,0,0,0-.21Zm.38,2.4A1.77,1.77,0,0,0,57,69l0,.11ZM59,72l-.15-.19h.28A.86.86,0,0,0,59,72Zm11.07-.54a1.8,1.8,0,0,0,.18-1h0a1.41,1.41,0,0,0,.65,1c-.38.64-.47,1.35-1.3,1.62a1,1,0,0,1-1.26-.9A1.59,1.59,0,0,0,70.07,71.46Zm14.2,1.17a1.31,1.31,0,0,0-.24-.78l0,0-.07-.08a1.63,1.63,0,0,0,.47-.32,1.41,1.41,0,0,0,.24-.32,2.14,2.14,0,0,0,.16.79,1.26,1.26,0,0,0,0,.33,1.81,1.81,0,0,1,.05.56.49.49,0,0,0,0,.12c0-.14,0,0,0,.05a.43.43,0,0,1,0,0l0,0a.75.75,0,0,1-.17-.1,2.86,2.86,0,0,1-.3-.22A.39.39,0,0,1,84.27,72.63Zm1.22,1.44a1.57,1.57,0,0,0,.6-1.08A2,2,0,0,0,87,73a1.42,1.42,0,0,0,.36-.14,1.92,1.92,0,0,1,.09,1,1.4,1.4,0,0,1-.58.77C86.22,75.09,85.73,74.68,85.49,74.07Zm5.39-9c-.11.21-.24.42-.36.64a.48.48,0,0,0-.35.11L90,66l-.09.11h-.07a.73.73,0,0,1-.32-.14l-.05,0a2.27,2.27,0,0,0,0-.58,1.53,1.53,0,0,0,.44-.12,2.24,2.24,0,0,0,1.16-1.55l.09,0a1,1,0,0,1,.1.34c0,.33-.13.48-.28.74a.53.53,0,0,0-.06.27Zm4.82-8.24.23-.22,0,0L95.7,57A.2.2,0,0,0,95.7,56.87ZM47.45,53a1.23,1.23,0,0,0,0,.2.38.38,0,0,0-.13-.09Zm.69,3.13a.84.84,0,0,0,.39-.4l.21.14a1.87,1.87,0,0,0-.19.69,2.61,2.61,0,0,0,.05.74l-.85-1A2,2,0,0,0,48.14,56.13Zm1.79,2.44a1.8,1.8,0,0,0,.4,0,1,1,0,0,0-.15.37,1.48,1.48,0,0,0,0,.42l-.67-.89A1.64,1.64,0,0,0,49.93,58.57Zm2,2.13a1.77,1.77,0,0,0-.3.45,1.09,1.09,0,0,0-.05.17L51,60.48A1.91,1.91,0,0,0,51.89,60.7Zm2.59,4.45c.11.77.29,1.18.54,1.27l-.15.1c-.35-.47-.69-.94-1-1.43A1.14,1.14,0,0,0,54.48,65.15Zm1.67,1.93a2,2,0,0,0,.18,1.25c-.09-.12-.18-.23-.28-.34l-.33-.41A1.22,1.22,0,0,0,56.15,67.08Zm1,2,.21.07a1.25,1.25,0,0,0,.12.69c-.13-.2-.27-.39-.41-.59A.89.89,0,0,1,57.12,69.09Zm10.36,5.32a3.85,3.85,0,0,1,.16-.69,2.51,2.51,0,0,0,1.66.88,1.76,1.76,0,0,0,1.2-.29,2.19,2.19,0,0,0-.33,1.11,1.61,1.61,0,0,1-.76,1.16c-.65.36-1.69.32-1.87-.51A5.78,5.78,0,0,1,67.48,74.41Zm5.06.7a.54.54,0,0,0,.08-.64c.09.17,0,0,0-.11a.18.18,0,0,0,0-.1,2.27,2.27,0,0,0,1.56.8,1.36,1.36,0,0,0,0,.29c-.2.79-.53,1.51-1.46,1.55-.63,0-1-.47-1.25-1a1.85,1.85,0,0,1-.26-.79A1.08,1.08,0,0,0,72.54,75.11Zm3.18-.63a2.53,2.53,0,0,0,1.35,1c-.26.53-.43,1.69-1.13,1.69-.36,0-.65-.78-.8-1A3.77,3.77,0,0,1,74.79,75,2.13,2.13,0,0,0,75.72,74.48Zm1.91,1.07a1.51,1.51,0,0,0,.75-.28l0,0a1.3,1.3,0,0,0,.16.31,1.74,1.74,0,0,0,1.23.75.16.16,0,0,0,.09.11h0s0,0,0,0c-.25.4-.58.84-1.09.86C78.14,77.34,77.72,76.19,77.63,75.55Zm4.17-.49a3.53,3.53,0,0,0,.13-.63,2.29,2.29,0,0,0,1.18-.17,2,2,0,0,0,.73-.54,1.67,1.67,0,0,0,.87.48,2.78,2.78,0,0,1,.2.84,2.16,2.16,0,0,1-.77,1.61c-.59.41-1.3-.06-1.72-.47A2.57,2.57,0,0,1,81.8,75.06Zm5.49.45a1.43,1.43,0,0,1,0,.22.94.94,0,0,1-.31.72.62.62,0,0,1-.78,0,.87.87,0,0,1-.37-.77A1.91,1.91,0,0,0,87.29,75.51Zm2.43.2,0,0a1.63,1.63,0,0,0,.31-.76c.3.2.58.42.85.63-.05.21,0,.39-.24.54a.53.53,0,0,1-.53,0A1.9,1.9,0,0,1,89.72,75.71Zm23.67-39.52a5.61,5.61,0,0,1,3.42,1.65c-2.74-.29-5.86,2.73-7.35,4.6-1.93,2.44-3.49,5.26-5.22,7.84-2.33,3.47-4.72,6.91-7.06,10.38-2.11,3.11-4.7,6-6.59,9.23a3.15,3.15,0,0,0-.28.51l-.11.21a.77.77,0,0,0-.44-.1l-.26,0h0a3.77,3.77,0,0,0,.28-.48q1.09-2.15,2.26-4.25c1.5-2.71,3.08-5.38,4.8-8l1.75-2.63a5.55,5.55,0,0,0,.95-1.41l.27-.39a3.9,3.9,0,0,0,1-1.49c1-1.53,2.11-3,3.22-4.52,1.46-2,2.78-4,4.12-6C109.57,39.1,110.86,36.79,113.39,36.19Zm-59.89.68c2.28-5.13,4.3-10.41,6.43-15.6a72.45,72.45,0,0,0,2.61-7.6c.82-2.79,3.09-4.8,5.39-6.39,3.4-2.35,7.27-3.81,10.36-6.5a45.35,45.35,0,0,0,5.34,2.83c1.79,1,3.55,2,5.31,3a17.36,17.36,0,0,1,8.85,11.29c1.23,4.41,2,8.94,3.29,13.36,1,3.49,2,8.08,4.18,11.13-3.13,3.24-5.54,7.14-8.62,10.45a48.44,48.44,0,0,1-5.39,4.72,33.59,33.59,0,0,0-3.67,2.8l-.58.3a13.21,13.21,0,0,0-.13-3.22,26,26,0,0,0-1-4.59c-.35-1.28-.56-2.55-.87-3.82,0-1.79-.92-3.76-1.3-5.4S83,40.35,82.6,38.74A24.77,24.77,0,0,0,82,36.05a5.94,5.94,0,0,0-.57-1.79l.22-.06a.66.66,0,0,0,.43.12c3.54-.33,7.09-.66,10.62-1h0a.72.72,0,0,0,1-.43,5.45,5.45,0,0,0,0-3c-.23-1.22-.12-2.64-.71-3.74a.31.31,0,0,0-.37-.14.68.68,0,0,0-.14-.22c-1-.95-3.09,0-4.19.31l-.2.05s0,0-.05,0c-2.49.24-5,.57-7.45.92-3,.42-5.78-.19-8.71-.53a.6.6,0,0,0-.48.12,48.83,48.83,0,0,1-5.33-1.09.76.76,0,0,0-.93.53,19.36,19.36,0,0,0-.62,2.35,24.42,24.42,0,0,0,.26,3.28.73.73,0,0,0,.13.4.65.65,0,0,0,.44.76,29,29,0,0,0,6.8,1.34c1.17.16,2.35.41,3.53.46a14,14,0,0,0-.89,4.77c-.2,2.67-.59,5.29-.87,8s-1,5.5-1.43,8.23c-.13.77.49,3.79-.15,4.23a.56.56,0,0,0-.2.26c-2-1.13-4-2.09-5.88-3.24-.8-.62-1.61-1.19-2.26-1.77-2-1.73-3.8-4.07-5.87-5.93-.27-.3-.55-.6-.83-.88-1.3-2-3-3.85-4.88-4.59a3.51,3.51,0,0,0-2.52-.09C51.12,41.3,52.52,39.05,53.5,36.87ZM49,45.55a4.14,4.14,0,0,1,.79-.77c1.46-1.1,3.14.3,4.21,1.34A6.75,6.75,0,0,0,50.07,46c-1.14.34-1.59,1.58-1.8,2.84a4.61,4.61,0,0,0-.48,2.37,2,2,0,0,0-.23.27A14.7,14.7,0,0,1,49,45.55Zm-2.64,8.21a.26.26,0,0,0,.17,0,.66.66,0,0,1,.19.29,2.75,2.75,0,0,1,.12.4,1.66,1.66,0,0,1,.06.21l0,0a1.1,1.1,0,0,0-.26-.15.37.37,0,0,0-.31,0l-.43-.52Zm-14,2.82a29.61,29.61,0,0,1,5.8-3.93,19.92,19.92,0,0,0,3.69,3.76c2.2,1.67,3.35,4.15,5.5,5.81,0,0,.08,0,.06-.06-1.21-1.91-2.07-4.25-3.79-5.78-1.39-1.24-2.58-3-4-4.38a.21.21,0,0,0,0-.24,3.45,3.45,0,0,1-.46-1.39l0-.09a.73.73,0,0,0,0-.2c.25-.32,1.07-.08,2.45.73L42.54,52c.68,1,1.49,1.93,2.23,2.89,1.95,2.51,4.21,4.82,5.85,7.55A45.1,45.1,0,0,0,55.07,69c.85,1,1.43,2.55,2.48,3.34a46,46,0,0,0-5.89,4.16c-2.33-1.44-4.91-2.57-7.29-4-2.87-1.66-5.69-3.41-8.59-5s-5.65-3-8.34-4.93a9.21,9.21,0,0,0-1.4-.8A76.21,76.21,0,0,1,32.33,56.58ZM3.07,87.83c-1.5-1-1.45-2.54.81-2.1h.06a.56.56,0,0,0,.43.43,1.33,1.33,0,0,0,.56,0,16.78,16.78,0,0,0,1.63,1,22.3,22.3,0,0,0,5.17,1.73.11.11,0,0,0,.06-.21A18.92,18.92,0,0,1,6,85.45a9.93,9.93,0,0,0,.92-1.58C8.07,81.63,9,79.3,10,77c1.11-2.58,2.56-5,3.33-7.68a60.84,60.84,0,0,1,2.14-6.87l.52.18a12.07,12.07,0,0,0,3.82.71.11.11,0,0,0,0-.22,22,22,0,0,1-3.47-1.37c-.48-.2-1.06-.64-1.64-.94-.85-1-1.64-2.18-.14-2.15A10.21,10.21,0,0,1,18.51,60c2.69,1.32,5.57,2.37,8.16,3.84,2,1.15,3.84,2.61,6,3.66s4.23,2.3,6.3,3.52c3.12,1.85,6.41,4.23,9.88,5.73,2.74,2,5.65,4.28,5.09,8.07-.32,2.14-2.26,4.29-3.55,5.93a55.84,55.84,0,0,1-4.12,4.58c-3.46,3.5-7,6-12.13,4.93-4.05-.83-7.78-3-11.8-3.86-3-1.13-6-2.31-9-3.5A62.9,62.9,0,0,1,3.07,87.83ZM115.8,112.39A74.78,74.78,0,0,1,113.41,126c-1.3,5.37-4.89,8.42-9.33,11.38a50.46,50.46,0,0,1-13,6c-3.64,1.15-8.28,3.18-12.13,2.82a.58.58,0,0,0-.56.25c-2-.42-4.19-.48-6-.89-3.67-.81-7.28-1.95-10.87-3.06a63.05,63.05,0,0,1-10.84-4.34,18.81,18.81,0,0,1-3.61-2.45.32.32,0,0,0,0-.09,48.14,48.14,0,0,1-4.13-10.88,35.12,35.12,0,0,1-1.47-5.59c0-.35-.17-1.51-.22-2.57l.06,0a.77.77,0,0,0,.19-.74,2.77,2.77,0,0,0-.1-.26c.5-.81,1.27-1.63,1.72-2.27.87-1.22,1.76-2.43,2.73-3.58,3.06-3.63,7.63-5.7,11.86-7.62,4-1.83,8.05-3.74,12-5.74,2-1,3.66-2.51,5.56-3.7A13.61,13.61,0,0,0,78.7,90a12.26,12.26,0,0,0,1.46,1.58A15.67,15.67,0,0,0,82,93.13a15.7,15.7,0,0,0,2,1.49,0,0,0,1,0,0-.05l-.52-.43c1.82,1.23,3.76,2.37,5.73,3.45l.24.2s0,0,0,0l-.07-.07c1.86,1,3.74,2,5.57,2.94,4.06,2.09,8.26,3.9,12.39,5.82a45.27,45.27,0,0,1,5.78,3.11c1,.67,2,1.53,3,2.3A.63.63,0,0,0,115.8,112.39Zm-4.63-5.71C107.27,104.53,103,102.9,99,101c-7-3.3-14.41-7-19.91-12.43L79,88.4c-.17-.36-.54-.9-1-.55a1.75,1.75,0,0,0-.62,1.37,30.64,30.64,0,0,1-4.1,2.91,43.83,43.83,0,0,1-6.64,4c-4.44,2.09-8.92,4.14-13.32,6.31a27.43,27.43,0,0,0-9.36,7,28.33,28.33,0,0,0-3.19,4.31.43.43,0,0,0-.23.21,1.63,1.63,0,0,0-.09.19l-.62-.6a14.86,14.86,0,0,0-1.5-1.57,10.22,10.22,0,0,1,.86-2,4.18,4.18,0,0,0,.15.61s0,0,0,0a2.94,2.94,0,0,1-.12-.69,19.85,19.85,0,0,1,6.66-6.78c3.81-2.26,7.49-4.79,11.44-6.8S65.23,92.16,69.16,90c1-.58,7.76-6,9.09-8a7.61,7.61,0,0,0,2.28,2.54,9.24,9.24,0,0,0,1.35,1.79,37.29,37.29,0,0,0,4.19,3.43A64.5,64.5,0,0,0,97.2,96c4,1.83,8,3.51,11.91,5.32a54,54,0,0,1,5.4,2.79c1.35.82,2.55,1.92,3.93,2.68a.64.64,0,0,1,.1.45c-.21,1.13-.44,2.19-.74,3.31,0,.18-.12.5-.18.87A23.31,23.31,0,0,0,111.17,106.68Zm4.76-13.85a34.36,34.36,0,0,1-.62,7,4.86,4.86,0,0,0-.08,2.79c-1.26-.72-2.58-1.32-3.67-1.85-3.91-1.9-7.93-3.58-11.89-5.36a83.18,83.18,0,0,1-11.41-6,53.61,53.61,0,0,1-5.39-4.11c-.65-.55-1.19-1.13-1.78-1.66a12.72,12.72,0,0,1-2-3.09.72.72,0,0,0-1.35,0,27.83,27.83,0,0,0-4,3.78A23.06,23.06,0,0,1,67.65,89c-4.51,2.39-9.06,4.71-13.52,7.17-2.3,1.26-4.44,2.83-6.68,4.19a40,40,0,0,0-4.88,3.12,19.76,19.76,0,0,0-2.73,2.8c-.26-1-.73-1.83-1-2.77a9.59,9.59,0,0,1-.23-1.39c4-.61,7.33-4,10-6.83,3-3.15,7.3-7.53,6.87-12.23a7.83,7.83,0,0,0-3-5.15.85.85,0,0,0,.28-.15l.11-.09h0c1.36-1.18,2.89-2.15,4.35-3.19,0,.06,0,.11,0,.17a4,4,0,0,0,.54,1.9,1.68,1.68,0,0,0,1.31.86,1.64,1.64,0,0,0,1.43-.84,2.72,2.72,0,0,0,.53.54,1.78,1.78,0,0,0,1.84.23,1.28,1.28,0,0,0,.5-.45l0,0a2.19,2.19,0,0,0,2,.8,1.42,1.42,0,0,0,1-.94,2.18,2.18,0,0,0,3,1.14,3.79,3.79,0,0,0,1-1.06A2.5,2.5,0,0,0,72,78.17a2.2,2.2,0,0,0,2.33-1.12,1.84,1.84,0,0,0,1.62,1.37,1.54,1.54,0,0,0,1.35-.9,2,2,0,0,0,1.52,1,1.64,1.64,0,0,0,1.71-1.4,1.31,1.31,0,0,0,.46.3A1.07,1.07,0,0,0,82.06,77a2,2,0,0,0,2.29.61,1.76,1.76,0,0,0,.92-.8.64.64,0,0,0,.08.14,1.58,1.58,0,0,0,2.43.19,1.06,1.06,0,0,0,.67.47,1.24,1.24,0,0,0,1-.17,1.41,1.41,0,0,0,.3-.34,1.67,1.67,0,0,0,2.13-.76c.91.77,1.78,1.58,2.71,2.36,2.67,2.24,5.23,4.86,8.09,6.84.46.31.92.66,1.4,1a.19.19,0,0,0,.13.21l.41.15c1.28.81,2.65,1.32,4.09.54h0c1.92-.48,3.22-1.85,4.83-2.93.59-.4,1.2-.77,1.81-1.12C115.37,86.51,115.86,89.66,115.93,92.83Zm0-11.23-.09.05-.68.36a33.78,33.78,0,0,0-4.73,3.1,4.93,4.93,0,0,1-1.23.67c.85-.52,1.64-1.29,2.38-1.82,1.82-1.32,3.55-2.75,5.38-4.07,2.19-1.58,5.61-2.08,7.79-3.81l1.29-.49.67,1.16C122.9,77.68,119.32,79.77,115.89,81.6ZM155,79.79a11.32,11.32,0,0,1-2.4.88c-1.57.42-3.14.79-4.71,1.25l-8.24,2.38q-1.85.54-3.69,1l-1.85.53-.93.28q-1.32.59-.63-1.32a.35.35,0,0,0,0-.69c-2-3-3.59-6.19-5.3-9.3-1.06-1.92-2.08-3.87-3-5.84-.45-.94-.69-2.32-1.18-3.3a30,30,0,0,1,4.85-3.77c3.62-2.34,7.77-4.48,10.57-7.87A2.14,2.14,0,0,1,140,54c.71.21.65.71.59,1.35a4.43,4.43,0,0,0,0,1c-1.14.88-2.09,2-3.23,2.85-.05,0,0,.12.07.09,1.19-.62,2.46-1.12,3.71-1.62a1,1,0,0,0,.26.18c.18.27.39.54.62.82a84.1,84.1,0,0,1,5.63,7.28,66.93,66.93,0,0,1,3.77,6.71c.57,1.1.86,2.6,1.45,3.81a1.09,1.09,0,0,0-.23.09c-1.25.23-1.5,2-2.78,2.33-.15,0-.12.3,0,.28a2.89,2.89,0,0,0,1.4-.55c.26-.17.54-.33.81-.49a.89.89,0,0,1,.45-.09.24.24,0,0,0,.23.11C153.47,78,156.7,78.86,155,79.79Zm-17.45,3.5c-1.14.23-1.78,1.49-3.07,1.21a1.2,1.2,0,0,1-1-.69c-.13-.33,0-.69-.11-1,0-.06.06-.12.12-.09a4.42,4.42,0,0,0,1.5.6,21,21,0,0,0,2.51-.14A.07.07,0,0,1,137.55,83.29ZM80.67,66.88l0,0S80.79,66.83,80.67,66.88Zm-6.28,52.94-13,8.05V112.39Z"/><line class="cls-2" x1="86.39" y1="106.39" x2="74.39" y2="133.39"/><path class="cls-3" d="M88.39,117.39h13m-13,5.5h13"/></g></g></svg>